<svg width="144" height="66" viewBox="0 0 144 66" fill="none" xmlns="http://www.w3.org/2000/svg">
<path d="M77.5433 52.6438L73.099 53.5152C72.8376 52.76 72.6197 51.9757 72.4454 51.1623C70.8188 52.5276 68.9307 53.2102 66.7811 53.2102C63.5859 53.2102 61.1459 52.2371 59.4611 50.2909C57.8054 48.3157 56.9775 45.7885 56.9775 42.7095C56.9775 39.0785 57.9652 36.2318 59.9404 34.1694C61.9447 32.078 65.0964 31.0323 69.3954 31.0323C71.5159 31.0323 74.0431 31.4535 76.9769 32.2959V46.2388C76.9769 48.5045 77.1657 50.6395 77.5433 52.6438ZM67.5219 49.0709C69.4681 49.0709 70.9931 48.2285 72.0969 46.5438V46.413V35.8252C70.7607 35.5347 69.6278 35.3894 68.6983 35.3894C64.2249 35.3894 61.9883 37.7568 61.9883 42.4916C61.9883 44.4668 62.4966 46.0645 63.5133 47.2845C64.5299 48.4754 65.8661 49.0709 67.5219 49.0709Z" fill="white"/>
<path d="M79.4628 31.468H84.6914L89.8764 47.2845L90.53 47.2409L95.7586 31.468H100.595L92.8829 52.9488H87.2186L79.4628 31.468Z" fill="white"/>
<path d="M111.84 49.3759C113.815 49.405 115.921 49.0273 118.157 48.243L119.072 51.6416C116.545 52.7164 114.047 53.2538 111.578 53.2538C108.325 53.2538 105.798 52.2952 103.997 50.3781C102.225 48.4319 101.339 45.8466 101.339 42.6223C101.339 41.1118 101.513 39.703 101.862 38.3959C102.239 37.0887 102.806 35.8833 103.561 34.7794C104.316 33.6466 105.376 32.7606 106.742 32.1216C108.107 31.4825 109.705 31.163 111.535 31.163C114.381 31.163 116.545 31.8166 118.027 33.1237C119.537 34.4018 120.292 36.0866 120.292 38.178C120.292 39.7175 119.915 40.894 119.16 41.7073C118.433 42.5207 117.039 43.1452 114.977 43.5809C112.943 44.0166 109.995 44.2345 106.132 44.2345C106.335 46.0064 106.887 47.299 107.787 48.1123C108.717 48.9257 110.068 49.3469 111.84 49.3759ZM111.709 34.7794C108.339 34.7794 106.466 36.7256 106.088 40.618C109.806 40.618 112.362 40.4147 113.757 40.008C115.18 39.5723 115.892 38.8171 115.892 37.7423C115.892 36.929 115.514 36.2318 114.759 35.6509C114.004 35.0699 112.987 34.7794 111.709 34.7794Z" fill="white"/>
<path d="M143.107 52.6438L138.662 53.5152C138.401 52.76 138.183 51.9757 138.009 51.1623C136.382 52.5276 134.494 53.2102 132.344 53.2102C129.149 53.2102 126.709 52.2371 125.024 50.2909C123.369 48.3157 122.541 45.7885 122.541 42.7095C122.541 39.0785 123.528 36.2318 125.504 34.1694C127.508 32.078 130.66 31.0323 134.959 31.0323C137.079 31.0323 139.606 31.4535 142.54 32.2959V46.2388C142.54 48.5045 142.729 50.6395 143.107 52.6438ZM133.085 49.0709C135.031 49.0709 136.556 48.2285 137.66 46.5438V46.413V35.8252C136.324 35.5347 135.191 35.3894 134.262 35.3894C129.788 35.3894 127.552 37.7568 127.552 42.4916C127.552 44.4668 128.06 46.0645 129.077 47.2845C130.093 48.4754 131.429 49.0709 133.085 49.0709Z" fill="white"/>
<path fill-rule="evenodd" clip-rule="evenodd" d="M44.2981 11.5356C44.7572 11.5356 45.2097 11.564 45.6539 11.6192V18.8703C45.6539 20.1594 46.6989 21.2044 47.9881 21.2044H55.123C55.1679 21.6063 55.191 22.0147 55.191 22.4285V55.1072C55.191 61.1232 50.3141 66.0001 44.2981 66.0001H11.6194C5.60346 66.0001 0.726562 61.1232 0.726562 55.1072V22.4285C0.726562 16.4125 5.60347 11.5356 11.6194 11.5356H44.2981ZM52.0791 49.4195C52.0501 48.1414 52.0355 47.2554 52.0355 46.7616V32.7316C48.9855 31.5987 46.0808 31.0323 43.3212 31.0323C39.4579 31.0323 36.6112 32.078 34.7812 34.1694C32.9802 36.2318 32.0798 39.0785 32.0798 42.7094C32.0798 45.6723 32.8931 48.1268 34.5198 50.073C36.1755 52.0192 38.5284 52.9923 41.5784 52.9923C43.6698 52.9923 45.5579 52.3388 47.2427 51.0316C47.2717 51.4383 47.2862 51.9757 47.2862 52.6438C47.2862 54.038 46.8215 55.1709 45.8919 56.0423C44.9915 56.9428 43.6553 57.3931 41.8834 57.3931C39.7919 57.3931 37.6569 57.059 35.4783 56.3909L34.4326 60.1816C37.2503 61.1983 39.7338 61.7066 41.8834 61.7066C44.9043 61.7066 47.3734 60.9514 49.2905 59.4409C51.2077 57.9304 52.1662 55.6502 52.1662 52.6002C52.1662 51.7288 52.1372 50.6685 52.0791 49.4195ZM47.1555 46.6745C46.1098 48.0687 44.5848 48.7659 42.5805 48.7659C40.9538 48.7659 39.6322 48.1849 38.6155 47.023C37.5988 45.8321 37.0905 44.3216 37.0905 42.4916C37.0905 40.3711 37.5698 38.6718 38.5284 37.3937C39.516 36.0866 41.0555 35.433 43.1469 35.433C44.5412 35.433 45.8774 35.6944 47.1555 36.2173V46.6745Z" fill="white"/>
<path d="M47.7437 11.6706C47.7437 10.9012 48.3674 10.2775 49.1368 10.2775H55.4057C56.1751 10.2775 56.7988 10.9012 56.7988 11.6706V17.9395C56.7988 18.7089 56.1751 19.3326 55.4057 19.3326H49.1368C48.3674 19.3326 47.7437 18.7089 47.7437 17.9395V11.6706Z" fill="white"/>
<path d="M51.5747 1.99798C51.5747 1.42094 52.0425 0.953156 52.6195 0.953156H58.01C58.587 0.953156 59.0548 1.42094 59.0548 1.99798V7.38844C59.0548 7.96548 58.587 8.43327 58.01 8.43327H52.6195C52.0425 8.43327 51.5747 7.96549 51.5747 7.38844V1.99798Z" fill="white"/>
<path d="M44.6094 3.56481C44.6094 3.08394 44.9992 2.69412 45.4801 2.69412H48.6779C49.1588 2.69412 49.5486 3.08394 49.5486 3.56481V6.7627C49.5486 7.24356 49.1588 7.63339 48.6779 7.63339H45.4801C44.9992 7.63339 44.6094 7.24356 44.6094 6.7627V3.56481Z" fill="white"/>
<path d="M58.8887 10.7763C58.8887 10.3525 59.2322 10.009 59.656 10.009H62.9972C63.421 10.009 63.7645 10.3525 63.7645 10.7763V14.1176C63.7645 14.5413 63.421 14.8849 62.9972 14.8849H59.656C59.2322 14.8849 58.8887 14.5413 58.8887 14.1176V10.7763Z" fill="white"/>
<path d="M60.6299 1.03655C60.6299 0.651853 60.9417 0.339996 61.3264 0.339996H63.7644C64.1491 0.339996 64.4609 0.651853 64.4609 1.03655V3.47448C64.4609 3.85917 64.1491 4.17103 63.7644 4.17103H61.3264C60.9417 4.17103 60.6299 3.85917 60.6299 3.47448V1.03655Z" fill="#FF6900"/>
</svg>
